<?xml version="1.0" encoding="utf-8"?>
<!-- Generator: Adobe Illustrator 24.0.2, SVG Export Plug-In . SVG Version: 6.00 Build 0)  -->
<svg version="1.1" id="Capa_1" xmlns="http://www.w3.org/2000/svg" xmlns:xlink="http://www.w3.org/1999/xlink" x="0px" y="0px"
	 viewBox="0 0 16 16" style="enable-background:new 0 0 16 16;" xml:space="preserve">
<style type="text/css">
	.st0{fill:#505050;}
	.st1{fill:#F8B472;}
</style>
<g>
	<path class="st0" d="M0.8,1.9C0.7,1.6,0.6,1.4,0.5,1.1c-0.1-0.4,0.1-0.6,1-0.6c2.8-0.1,5.4,0.3,7.7,1.1c3.6,1.3,5.5,3,6.1,5.2
		c0.5,1.9,0.3,3.7-1.6,5.3c-2.6,2.4-6.7,3.4-12.1,3.4c-1,0-1.2-0.1-1.1-0.6c0.2-0.5,0.5-1.1,0.7-1.6c0.6-0.8,0.9-1.5,1.1-1.9
		c0.4-1,0.3-0.9,0.6-2.1C3,8.8,3.2,8.4,3.2,7.8c0-0.1,0.1-0.2-0.1-0.7C2.7,5.8,2.8,6,2.6,5.6c-0.1-0.4-0.4-1-0.8-1.8
		C1.7,3.5,1.6,3.3,1.4,2.9"/>
	<path class="st1" d="M3.5,6C3.2,5.2,3,4.5,2.5,3.9c-0.1-0.1,0-0.2,0.2-0.3C3.1,3.4,3.5,3.2,3.9,3C4.3,2.8,4.4,2.6,4,2.4
		c-0.4-0.2-0.8-0.2-1.2,0C2.5,2.5,2.2,2.7,1.9,2.7C1.6,2.6,1.6,2.3,1.5,2.1C1.3,1.8,1.2,1.6,1.1,1.3C1,0.9,1.2,0.8,2,0.8
		c2.6-0.1,5.1,0.3,7.2,1c3.4,1.2,5.2,2.9,5.8,5c0.5,1.8,0.2,3.5-1.5,5.2c-2.4,2.3-6.3,3.3-11.4,3.3c-1,0-1.2-0.1-1-0.6
		c0.1-0.5,0.5-1,0.8-1.4C2,13,2.2,13,2.4,13.1c0.7,0.3,1.4,0.4,2.3,0.4c0.6,0,1-0.1,1-0.4c0-0.3-0.4-0.4-0.9-0.4
		c-0.6,0-1-0.1-1.5-0.3c-0.5-0.2-0.7-0.5-0.5-0.8c0.3-0.4,0.4-0.9,0.6-1.3c0.1-0.2,0.1-0.3,0.7-0.2c2,0.5,4,0.7,6.2,0.7
		c0.4,0,0.7,0,1.1-0.1c0.5,0,0.8-0.2,0.7-0.5c-0.1-0.3-0.5-0.4-1-0.3C9.3,10,7.5,9.8,5.7,9.5c-0.1,0-0.2,0-0.3,0
		C3.7,9.1,3.8,9.1,3.8,8.2c0-0.3,0-0.6,0-0.9C3.7,7,3.8,6.9,4.3,6.7C5.7,6.4,7.1,6.1,8.6,6c0.6,0,1-0.2,0.9-0.5
		C9.4,5.2,8.9,5.1,8.4,5.1C7,5.2,5.7,5.5,4.4,5.8C4.1,5.8,3.9,5.9,3.5,6z"/>
</g>
</svg>
