<?xml version="1.0" encoding="utf-8"?>
<!-- Generator: Adobe Illustrator 24.0.2, SVG Export Plug-In . SVG Version: 6.00 Build 0)  -->
<svg version="1.1" id="Capa_1" xmlns="http://www.w3.org/2000/svg" xmlns:xlink="http://www.w3.org/1999/xlink" x="0px" y="0px"
	 viewBox="0 0 460 53" style="enable-background:new 0 0 460 53;" xml:space="preserve">
<style type="text/css">
	.st0{fill:#505050;}
	.st1{fill:#F8B472;}
	.st2{fill:#1C1C1C;}
</style>
<g>
	<path class="st0" d="M181.3,7.3c-0.4-0.9-0.6-1.8-0.8-2.7c-0.4-1.5,0.2-1.9,2.7-2c8-0.2,15.4,1,21.9,3.7
		c10.4,4.3,15.7,10.3,17.4,17.6c1.5,6.3,0.7,12.5-4.5,18.2c-7.4,8-19.2,11.6-34.5,11.6c-2.9,0-3.5-0.5-3.1-2.2
		c0.5-1.7,1.3-3.7,2.1-5.4c1.7-2.7,2.6-4.9,3.2-6.6c1.2-3.5,1-2.9,1.6-7.2c0.2-1.5,0.6-2.7,0.6-5c0-0.5,0.2-0.7-0.3-2.5
		c-1.1-4.2-0.8-3.7-1.2-5.1c-0.4-1.4-1-3.5-2.2-6.1c-0.5-1-0.8-1.5-1.3-2.8"/>
	<path class="st1" d="M188.9,21.2c-0.8-2.5-1.6-4.9-2.8-7.3c-0.2-0.5,0-0.8,0.6-1.1c1.2-0.6,2.3-1.2,3.4-1.9
		c1.2-0.7,1.3-1.4,0.3-2.1c-1-0.7-2.2-0.6-3.4-0.1c-0.9,0.4-1.7,1.3-2.6,1.1c-0.9-0.2-0.9-1.3-1.2-1.9c-0.4-0.9-0.8-1.7-1-2.6
		c-0.4-1.5,0.2-1.9,2.6-1.9c7.6-0.2,14.5,1,20.7,3.6c9.8,4.1,14.8,10,16.4,16.9c1.4,6.1,0.7,12-4.3,17.5c-7,7.7-18.1,11.2-32.5,11.2
		c-2.7,0-3.3-0.5-2.9-2.1c0.4-1.7,1.5-3.3,2.3-4.9c0.3-0.7,0.8-0.5,1.4-0.2c1.9,0.9,4.1,1.4,6.5,1.4c1.7,0,2.8-0.4,2.8-1.4
		c0-1-1.1-1.4-2.6-1.5c-1.6,0-3-0.4-4.2-1c-1.3-0.7-2-1.5-1.3-2.7c0.8-1.4,1.3-3,1.6-4.5c0.2-0.8,0.4-1.2,2.1-0.7
		c5.6,1.6,11.5,2.3,17.7,2.3c1.1,0,2.1-0.1,3.2-0.2c1.6-0.2,2.4-0.8,2.1-1.7c-0.3-0.9-1.4-1.3-2.8-1.2c-5.4,0.5-10.5-0.2-15.6-1.2
		c-0.3-0.1-0.5-0.1-0.8-0.1c-4.9-1.1-4.9-1.1-4.8-4.2c0-1,0.1-2.1-0.1-3.1c-0.2-0.9,0.3-1.4,1.6-1.8c3.9-1.1,7.9-2.2,12.3-2.6
		c1.8-0.1,2.8-0.8,2.5-1.6c-0.4-1-1.6-1.4-3.2-1.3c-4,0.3-7.6,1.2-11.3,2.1C190.8,20.7,189.9,20.9,188.9,21.2z"/>
</g>
<path class="st2" d="M30.1,38.7C33.9,27.8,37.6,17.6,41,7.2c1.3-4,2.9-5.8,7.5-5.6c10.7,0.4,10.7,0.1,10.7,10.9
	c0,12-0.3,24,0.1,35.9c0.1,4.6-2,4.8-5.4,4.6c-3.2-0.1-6.3,0.8-6.1-4.6c0.5-10.9,0.1-21.8-0.8-32.8c-3.7,10.7-7.6,21.5-11.1,32.3
	c-1.1,3.4-2.1,5.4-6.5,5.4c-4.6,0-5.2-2.5-6.3-5.6c-3.2-9.4-6.6-18.8-10-28.1c-0.5-1.4-0.1-3.9-2.3-4c0,11.5-0.1,22.9,0.1,34.3
	c0.1,4.8-3.3,2.9-5.5,3.2c-2.5,0.3-4.6,0.5-4.6-3.4C0.9,34.6,0.8,19.8,0.8,5c0-0.8-0.2-2.2,0.1-2.3c4.4-2,9.2-0.4,13.7-1
	c2.8-0.3,3.2,1.7,3.9,3.6C22.3,16.2,26.1,27.1,30.1,38.7z"/>
<path class="st2" d="M158.3,35.3c0-9.7,0.3-19.4-0.1-29.1c-0.2-4.7,2.1-4.6,5.5-4.7c3.5-0.1,5.5,0.2,5.4,4.7
	c-0.4,13.4,0,26.8-0.2,40.2c0,2.1,1.7,5.8-1.6,6.1c-3.8,0.3-8.4,2.4-11.5-2.5c-6.3-9.9-12.9-19.7-19.4-29.5
	c-0.6-0.8-1.2-1.6-2.7-3.6c0,11-0.3,20.8,0.1,30.5c0.2,4.7-1.3,5.7-5.7,5.6c-3.8-0.1-5.2-0.9-5.1-5c0.3-13.2,0-26.4,0.2-39.6
	c0-2.2-2.1-6.3,1.7-6.5c4.1-0.3,9.1-2.5,12.5,3.1c6.3,10.4,13.2,20.4,19.9,30.6C157.6,35.5,157.9,35.4,158.3,35.3z"/>
<path class="st2" d="M392.4,35.4c0-9.7,0.3-19.4-0.1-29c-0.2-4.5,1.8-4.9,5.4-4.8c3.3,0.1,5.6-0.2,5.5,4.6
	c-0.4,13.4-0.1,26.8-0.2,40.2c0,2.1,1.6,5.9-1.5,6.2c-4,0.4-8.7,2.4-12-2.9c-6-9.7-12.4-19.1-18.7-28.6c-0.7-1-1.4-2-2.2-3
	c-2.1,1.1-1.1,2.9-1.1,4.3c0,8.1,0.1,16.2,0.1,24.4c0,5.6-3.9,8.2-9.2,6.1c-2-0.8-1.4-2.3-1.4-3.5c0-14.8,0-29.6-0.1-44.5
	c0-2.8,1.1-3.1,3.6-3.3c5.7-0.5,9.7,0.8,12.8,6.4c5.4,9.5,11.8,18.5,17.9,27.6C391.6,35.5,392,35.5,392.4,35.4z"/>
<path class="st2" d="M345,27.3c0,7.3-0.2,14.6,0.1,21.9c0.2,5.1-3.3,3.6-5.8,3.6c-2.5,0-5.8,1.4-5.7-3.7c0.3-14.6,0.2-29.3,0-43.9
	c-0.1-5.1,3.2-3.6,5.7-3.6c2.5,0,5.9-1.4,5.7,3.7C344.8,12.7,345,20,345,27.3z"/>
<path class="st2" d="M316.8,35.2c-1.3-1.9-3.2-3.4-5-5.3c0.9-0.5,1.8-1,2.6-1.5c6.3-3.8,8.9-9.2,7.7-15.8c-1.2-6.6-5.9-9.2-12-10.4
	c-7.3-1.3-14.6-0.4-22-0.7c-3-0.1-2.5,2-2.5,3.8c0,14.6,0,29.2,0,43.8c0,1.5-0.4,3.1,2,3.6c6.8,1.5,9.2-0.1,9.2-6.8
	c0-2.6-0.2-5.3,0.1-7.9c0.1-1.6-1.2-4,1.3-4.7c2.2-0.6,4.6-0.2,6.1,1.9c2.3,3.1,4.4,6.4,6.4,9.6c5.6,9.1,6,9.3,17.1,7
	C324.2,46.3,320.6,40.7,316.8,35.2z M300.9,24.9c-7.1,0.2-2.7-5.1-4.1-7.4c0.7-3.3-2-8,4.7-7.4c6.2,0.5,9.3,2.5,9.2,7.2
	C310.6,22,306.8,24.7,300.9,24.9z"/>
<path class="st2" d="M98.8,4.3c-0.9-2.6-2.6-3-4.7-2.5c-3.5,0.8-8.4-2.6-10.3,2.2c-6.2,16-11.9,32.3-18.3,49.7
	c5.2-2.5,12.2,3.3,13.7-5.3c1.1-6.7,4.6-8.6,10.8-7.6c1.4,0.2,2.9,0.2,4.3,0c4.4-0.8,7,1,7.4,5.4c0.6,5.9,4,7.7,9.5,6.8
	c1.4-0.2,2.8-0.2,4.7-0.3C110.1,36.3,104.4,20.3,98.8,4.3z M84.3,31.9c1.9-6.1,3.7-12,5.5-17.9c0.5-0.1,1-0.3,1.5-0.4
	c2,6,4,11.9,6.1,18.3C92.9,31.9,88.9,31.9,84.3,31.9z"/>
<path class="st2" d="M261.8,4.2c-1.1-3-3.2-2.9-5.3-2.5c-3.3,0.7-7.9-2.5-9.7,2.2c-6.2,16.1-11.9,32.3-18.3,49.7
	c5.2-2.5,12.2,3.3,13.7-5.3c1.1-6.7,4.7-8.6,10.9-7.6c1.4,0.2,2.9,0.2,4.3,0c4.5-0.8,7,1.1,7.4,5.5c0.6,6,4,7.7,9.5,6.8
	c1.4-0.2,2.8-0.2,4.7-0.3C273.1,36.3,267.3,20.3,261.8,4.2z M247.2,32c1.9-6.2,3.8-12.2,5.7-18.1c0.5-0.2,1-0.4,1.5-0.5
	c2,6.1,4,12.2,6.1,18.6C255.8,32,251.8,32,247.2,32z"/>
<path class="st2" d="M442.4,3.7c-1.6-4.2-5.7-1.6-8.6-1.9c-2.1-0.2-4.9-1.4-6.2,2.1c-5.8,16.2-11.7,32.3-18,49.6
	c5.2-2.1,12.1,3.4,13.6-5.1c1.2-6.6,4.6-8.7,10.8-7.6c1.4,0.2,2.9,0.2,4.3,0c4.4-0.7,7,0.9,7.5,5.4c0.6,5.9,3.9,7.8,9.5,6.8
	c1.3-0.2,2.7-0.2,4.7-0.3C454,36.1,448.4,19.9,442.4,3.7z M431.6,21.1c0.9-2.7,1.8-5.4,3.2-9.7c2.4,7.6,4.4,13.7,6.6,20.5
	C427.8,32.9,427.8,32.9,431.6,21.1z"/>
</svg>
