<?xml version="1.0" encoding="utf-8"?>
<!-- Generator: Adobe Illustrator 24.0.2, SVG Export Plug-In . SVG Version: 6.00 Build 0)  -->
<svg version="1.1" id="Capa_1" xmlns="http://www.w3.org/2000/svg" xmlns:xlink="http://www.w3.org/1999/xlink" x="0px" y="0px"
	 viewBox="0 0 500 255" style="enable-background:new 0 0 500 255;" xml:space="preserve">
<style type="text/css">
	.st0{display:none;}
	.st1{display:inline;fill:#333333;}
	.st2{fill:#FFFFFF;stroke:#000000;stroke-width:0.25;stroke-miterlimit:10;}
	.st3{fill:none;}
	.st4{fill:#505050;}
	.st5{fill:#F8B472;}
	.st6{fill:#1C1C1C;}
	.st7{display:none;fill:#1C1C1C;}
	.st8{display:none;fill:#FFFFFF;}
	.st9{fill:#FFFFFF;}
	.st10{font-family:'MyriadPro-Regular';}
	.st11{font-size:1.3215px;}
</style>
<g class="st0">
	<path class="st1" d="M484,224.3H18c-6.6,0-12-5.4-12-12V36.1c0-6.6,5.4-12,12-12h466c6.6,0,12,5.4,12,12v176.1
		C496,218.9,490.6,224.3,484,224.3z"/>
</g>
<g>
	<path class="st2" d="M483.7,223.5H17c-6.6,0-12-5.4-12-12V35c0-6.6,5.4-12,12-12h466.7c6.6,0,12,5.4,12,12v176.4
		C495.7,218.1,490.3,223.5,483.7,223.5z"/>
</g>
<path class="st3" d="M257.5,220.8c-93.7,0-187.4,0-281.2,0.1c-4.2,0-5-0.8-5-5c0.2-61.8,0.2-123.5,0-185.3c0-4,0.6-5.1,4.9-5.1
	c187.6,0.1,375.3,0.1,562.9,0c3.8,0,4.7,0.8,4.7,4.7c-0.1,62-0.2,123.9,0,185.9c0,4.6-1.5,4.7-5.3,4.7
	C444.9,220.8,351.2,220.8,257.5,220.8z"/>
<g>
	<path class="st4" d="M206.6,85.5c-0.5-1.5-0.7-3.1-1-4.6c-0.5-2.5,0.1-3.3,2.7-3.5c8.1-0.7,15.7,1.1,22.5,5.5
		c10.8,6.8,16.6,16.9,18.8,29.1c1.9,10.6,1.5,21.1-3.5,30.9c-7,13.9-18.9,20.3-34.4,20.8c-3,0.1-3.6-0.7-3.3-3.6
		c0.4-3,1.1-6.3,1.9-9.2c1.6-4.6,2.4-8.4,2.8-11.2c1-6,0.8-5,1.2-12.2c0.1-2.5,0.4-4.7,0.3-8.4c0-0.9,0.1-1.2-0.4-4.2
		c-1.3-7.1-1.1-6.2-1.6-8.6c-0.5-2.4-1.2-5.9-2.6-10.3c-0.5-1.7-0.9-2.5-1.5-4.7"/>
	<path class="st5" d="M215.2,108.8c-0.9-4.2-1.9-8.3-3.2-12.2c-0.3-0.8,0-1.3,0.5-1.8c1.1-1.1,2.2-2.2,3.4-3.3
		c1.2-1.2,1.2-2.4,0.1-3.6c-1.1-1.1-2.3-1-3.5,0c-0.9,0.7-1.6,2.3-2.6,2c-1-0.4-1-2.1-1.4-3.2c-0.5-1.4-0.9-2.9-1.2-4.3
		c-0.5-2.4,0.1-3.1,2.5-3.3c7.7-0.6,14.8,1.1,21.2,5.3c10.2,6.6,15.7,16.3,17.7,28c1.8,10.2,1.4,20.3-3.3,29.8
		c-6.6,13.3-17.8,19.6-32.5,20c-2.8,0.1-3.4-0.7-3.1-3.4c0.3-2.9,1.3-5.6,2-8.3c0.3-1.2,0.8-0.8,1.4-0.4c2,1.4,4.2,2.2,6.7,2.2
		c1.7,0,2.8-0.8,2.8-2.5c0-1.6-1.2-2.4-2.7-2.4c-1.7,0-3.1-0.6-4.3-1.6c-1.4-1.2-2.1-2.5-1.5-4.5c0.8-2.5,1.1-5.1,1.4-7.6
		c0.1-1.4,0.4-2,2.1-1.3c5.8,2.4,11.9,3.5,18.2,3.3c1.1,0,2.2-0.2,3.2-0.5c1.6-0.3,2.4-1.4,2.1-3c-0.3-1.5-1.5-2.1-3-1.9
		c-5.5,1-10.7,0-15.9-1.5c-0.3-0.1-0.5-0.1-0.8-0.2c-5-1.7-5-1.7-5.1-6.9c0-1.8,0-3.6-0.3-5.3c-0.2-1.5,0.2-2.4,1.6-3.1
		c4-2,7.9-4,12.3-4.8c1.8-0.3,2.8-1.5,2.5-2.9c-0.4-1.7-1.7-2.3-3.3-2c-4,0.6-7.7,2.2-11.3,4C217,107.9,216.2,108.3,215.2,108.8z"/>
</g>
<g id="Capa_2">
	<path class="st6" d="M56.9,127.3c3.8-10.9,7.5-21.1,10.9-31.5c1.3-4,2.9-5.8,7.5-5.6C86,90.6,86,90.3,86,101c0,12-0.3,24,0.1,35.9
		c0.1,4.6-2,4.8-5.4,4.6c-3.2-0.1-6.3,0.8-6.1-4.6c0.5-10.9,0.1-21.8-0.8-32.8c-3.7,10.7-7.6,21.5-11.1,32.3
		c-1.1,3.4-2.1,5.4-6.5,5.4c-4.6,0-5.2-2.5-6.3-5.6c-3.2-9.4-6.6-18.8-10-28.1c-0.5-1.4-0.1-3.9-2.3-4c0,11.5-0.1,22.9,0.1,34.3
		c0.1,4.8-3.3,2.9-5.5,3.2c-2.5,0.3-4.6,0.5-4.6-3.4c0.2-14.8,0.1-29.6,0.1-44.5c0-0.8-0.2-2.2,0.1-2.3c4.4-2,9.2-0.4,13.7-1
		c2.8-0.3,3.2,1.7,3.9,3.6C49.1,104.8,52.9,115.7,56.9,127.3z"/>
	<path class="st6" d="M185.1,124c0-9.7,0.3-19.4-0.1-29.1c-0.2-4.7,2.1-4.6,5.5-4.7c3.5-0.1,5.5,0.2,5.4,4.7
		c-0.4,13.4,0,26.8-0.2,40.2c0,2.1,1.7,5.8-1.6,6.1c-3.8,0.3-8.4,2.4-11.5-2.5c-6.3-9.9-12.9-19.7-19.4-29.5
		c-0.6-0.8-1.2-1.6-2.7-3.6c0,11-0.3,20.8,0.1,30.5c0.2,4.7-1.3,5.7-5.7,5.6c-3.8-0.1-5.2-0.9-5.1-5c0.3-13.2,0-26.4,0.2-39.6
		c0-2.2-2.1-6.3,1.7-6.5c4.1-0.3,9.1-2.5,12.5,3.1c6.3,10.4,13.2,20.4,19.9,30.6C184.3,124.2,184.7,124.1,185.1,124z"/>
	<path class="st6" d="M419.1,124c0-9.7,0.3-19.4-0.1-29c-0.2-4.5,1.8-4.9,5.4-4.8c3.3,0.1,5.6-0.2,5.5,4.6
		c-0.4,13.4-0.1,26.8-0.2,40.2c0,2.1,1.6,5.9-1.5,6.2c-4,0.4-8.7,2.4-12-2.9c-6-9.7-12.4-19.1-18.7-28.6c-0.7-1-1.4-2-2.2-3
		c-2.1,1.1-1.1,2.9-1.1,4.3c0,8.1,0.1,16.2,0.1,24.4c0,5.6-3.9,8.2-9.2,6.1c-2-0.8-1.4-2.3-1.4-3.5c0-14.8,0-29.6-0.1-44.5
		c0-2.8,1.1-3.1,3.6-3.3c5.7-0.5,9.7,0.8,12.8,6.4c5.4,9.5,11.8,18.5,17.9,27.6C418.4,124.2,418.8,124.1,419.1,124z"/>
	<path class="st7" d="M207.7,115.7c0-7.3,0-14.6,0-21.9c0-1.9-0.1-3.6,2.7-3.5c7.7,0.4,15.5-0.7,23.2,0.9
		c12.9,2.6,18.7,9.4,19.4,22.7c0.6,12.4-6,22.6-16.9,26.1c-8.6,2.7-17.4,1.3-26.1,1.6c-3.2,0.1-2.1-2.4-2.2-3.9
		C207.7,130.3,207.7,123,207.7,115.7z"/>
	<path class="st6" d="M338.6,118.6c1.8,1.8,3.7,3.3,5,5.3c3.8,5.5,7.4,11.1,11.1,16.8c-11.1,2.3-11.6,2.1-17.1-7
		c-2-3.3-4.1-6.5-6.4-9.6c-1.5-2-3.9-2.5-6.1-1.9c-2.5,0.7-1.2,3.1-1.3,4.7c-0.2,2.6-0.1,5.3-0.1,7.9c0,6.7-2.4,8.4-9.2,6.8
		c-2.5-0.6-2-2.1-2-3.6c0-14.6,0-29.2,0-43.8c0-1.7-0.5-3.9,2.5-3.8c7.3,0.3,14.7-0.7,22,0.7c6.1,1.1,10.8,3.7,12,10.4
		c1.2,6.6-1.4,12-7.7,15.8C340.4,117.6,339.5,118.1,338.6,118.6z"/>
	<path class="st6" d="M92.3,142.3c6.4-17.4,12.1-33.7,18.3-49.7c1.9-4.8,6.8-1.4,10.3-2.2c2.1-0.5,3.8-0.1,4.7,2.5
		c5.6,16.1,11.3,32.1,17.2,48.4c-1.9,0.1-3.3,0-4.7,0.3c-5.5,1-8.9-0.8-9.5-6.8c-0.4-4.4-3-6.2-7.4-5.4c-1.4,0.2-2.9,0.2-4.3,0
		c-6.2-1-9.7,0.9-10.8,7.6C104.5,145.6,97.5,139.8,92.3,142.3z"/>
	<path class="st6" d="M305.7,141.3c-1.9,0.1-3.3,0-4.7,0.3c-5.5,0.9-8.9-0.8-9.5-6.8c-0.4-4.4-2.9-6.2-7.4-5.5
		c-1.4,0.2-2.9,0.2-4.3,0c-6.2-1-9.7,0.9-10.9,7.6c-1.4,8.6-8.5,2.8-13.7,5.3c6.4-17.4,12.1-33.6,18.3-49.7c1.8-4.7,6.4-1.5,9.7-2.2
		c2.1-0.4,4.3-0.6,5.3,2.5C294.1,108.9,299.9,124.9,305.7,141.3z"/>
	<path class="st6" d="M486.7,141.3c-2,0.1-3.4,0-4.7,0.3c-5.5,1-8.9-0.9-9.5-6.8c-0.4-4.5-3.1-6.1-7.5-5.4c-1.4,0.2-2.9,0.2-4.3,0
		c-6.2-1.1-9.6,1-10.8,7.6c-1.5,8.5-8.4,3-13.6,5.1c6.3-17.3,12.2-33.4,18-49.6c1.2-3.5,4.1-2.3,6.2-2.1c2.9,0.3,7-2.3,8.6,1.9
		C475.1,108.5,480.8,124.7,486.7,141.3z"/>
	<path class="st6" d="M371.8,116c0,7.3-0.2,14.6,0.1,21.9c0.2,5.1-3.3,3.6-5.8,3.6c-2.5,0-5.8,1.4-5.7-3.7c0.3-14.6,0.2-29.3,0-43.9
		c-0.1-5.1,3.2-3.6,5.7-3.6c2.5,0,5.9-1.4,5.7,3.7C371.5,101.3,371.8,108.7,371.8,116z"/>
	<path class="st8" d="M218.9,116.5c0-3.7,0.4-7.4-0.1-11c-0.7-5.2,1.7-6,6.2-5.8c11.3,0.4,17.2,6.8,16,18.1
		c-1.3,12.3-10.1,14.8-19.5,14.6c-2.8-0.1-2.6-1.9-2.6-3.8C218.9,124.7,218.9,120.6,218.9,116.5z"/>
	<path class="st9" d="M323.6,106.2c0.7-3.3-2-8,4.7-7.4c6.2,0.5,9.3,2.5,9.2,7.2c-0.1,4.8-3.9,7.4-9.7,7.6
		C320.6,113.8,325.1,108.4,323.6,106.2z"/>
	<path class="st9" d="M118.1,102.2c2,6,4,11.9,6.1,18.3c-4.5,0-8.5,0-13.2,0c1.9-6.1,3.7-12,5.5-17.9
		C117.1,102.5,117.6,102.4,118.1,102.2z"/>
	<path class="st9" d="M287.2,120.6c-4.6,0-8.7,0-13.2,0c1.9-6.2,3.8-12.2,5.7-18.1c0.5-0.2,1-0.4,1.5-0.5
		C283.1,108.1,285.1,114.2,287.2,120.6z"/>
	<path class="st9" d="M468.1,120.5c-13.6,1-13.6,1-9.7-10.7c0.9-2.7,1.8-5.4,3.2-9.7C464,107.6,465.9,113.7,468.1,120.5z"/>
</g>
<text transform="matrix(-1 0 0 -1 462.1367 205.376)"><tspan x="0" y="0" class="st10 st11">BY LOLOPLOX  </tspan><tspan x="0" y="1.6" class="st10 st11">            AND </tspan><tspan x="0" y="3.2" class="st10 st11">         DIEGO</tspan></text>
</svg>
