<?xml version="1.0" encoding="utf-8"?>
<!-- Generator: Adobe Illustrator 24.0.2, SVG Export Plug-In . SVG Version: 6.00 Build 0)  -->
<svg version="1.1" id="Capa_1" xmlns="http://www.w3.org/2000/svg" xmlns:xlink="http://www.w3.org/1999/xlink" x="0px" y="0px"
	 viewBox="0 0 500 255" style="enable-background:new 0 0 500 255;" xml:space="preserve">
<style type="text/css">
	.st0{opacity:0.5;}
	.st1{opacity:0.75;}
	.st2{fill:#333333;}
	.st3{fill:#FFFFFF;}
	.st4{fill:#F25B24;}
	.st5{fill:#F7931E;}
	.st6{fill:#F9AA4C;}
	.st7{fill:#FEFDFD;}
	.st8{fill:#FEFEFE;}
	.st9{font-family:'MicrosoftSansSerif';}
	.st10{font-size:120.0517px;}
</style>
<g>
	<g class="st0">
		<g class="st1">
			<path d="M484,224.3H18c-6.6,0-12-5.4-12-12V36.1c0-6.6,5.4-12,12-12h466c6.6,0,12,5.4,12,12v176.1
				C496,218.9,490.6,224.3,484,224.3z"/>
		</g>
		<g>
			<path class="st2" d="M484,224.3H18c-6.6,0-12-5.4-12-12V36.1c0-6.6,5.4-12,12-12h466c6.6,0,12,5.4,12,12v176.1
				C496,218.9,490.6,224.3,484,224.3z"/>
		</g>
	</g>
	<g>
		<g class="st1">
			<path d="M483.7,223.5H17c-6.6,0-12-5.4-12-12V35c0-6.6,5.4-12,12-12h466.7c6.6,0,12,5.4,12,12v176.4
				C495.7,218.1,490.3,223.5,483.7,223.5z"/>
		</g>
		<g>
			<path class="st3" d="M483.7,223.5H17c-6.6,0-12-5.4-12-12V35c0-6.6,5.4-12,12-12h466.7c6.6,0,12,5.4,12,12v176.4
				C495.7,218.1,490.3,223.5,483.7,223.5z"/>
		</g>
	</g>
	<g>
		<path class="st4" d="M464.8,219.3c-15,5.5-28.8,5-42.1-1.6c-8.9-4.4-15.7-11.2-20.9-19.7c-0.4-0.7-0.7-1.4-1-2.2
			c-0.2-0.6-1.7-1.3-0.1-2c1.2-0.5,1.9-0.9,2.8,0.8c3.7,7.5,9.3,13.6,16.4,18c9.1,5.7,19.1,8.3,29.9,7c19.5-2.4,33.1-12.9,40.1-31.2
			c3.4-8.9,3.7-18.3,1-27.6c-0.3-1-0.9-2.2,0.9-2.7c1.1-0.3,1.5-0.4,1.9,0.9c2.9,10.2,2.6,20.2-0.8,30.2c-3.8,11-10.7,19.6-20.5,26
			C469.6,217,466.7,218.3,464.8,219.3z"/>
		<path class="st5" d="M439.6,178.7c-4.4,10-8.6,19.7-12.8,29.4c-0.3,0.8-0.6,1-1.4,0.5c-6.8-3.8-12-9.3-15.8-16.1
			c-0.4-0.8-1.3-1.6,0.4-2.3C419.8,186.5,429.5,182.6,439.6,178.7z"/>
		<path class="st5" d="M432.2,211.6c4.3-9.8,8.6-19.5,12.9-29.3c0.6,0.1,0.6,0.7,0.7,1c3.5,9,7,18,10.6,27c0.5,1.3,0.4,1.7-1.1,2.1
			C447.5,214.4,439.8,214.2,432.2,211.6z"/>
		<path class="st6" d="M466.9,168.1c5.5-2.2,10.9-4.3,16.4-6.5c0.9-0.3,1.3-0.3,1.6,0.7c1.9,7.6,2,15.2-0.4,22.8
			c-0.4,1.2-0.6,1.5-1.9,0.9c-4.5-2.1-9.1-4.1-13.7-6.1c-0.4-0.5-0.5-1.1-0.5-1.7c-0.2-2.8-0.7-5.6-1.4-8.3
			C466.8,169.3,466.6,168.7,466.9,168.1z"/>
		<path class="st5" d="M461.3,205.6c-3.4-8.7-6.8-17.5-10.2-26.1c5.8,2.4,11.6,4.8,17.5,7.3c0.5,0.6,0.3,1.2,0.2,1.9
			c-0.9,5.6-2.9,10.8-5.9,15.5C462.5,204.8,462.2,205.5,461.3,205.6z"/>
		<path class="st6" d="M461.3,205.6c4.1-5.6,6.3-12,7.3-18.8c3.9,1.7,7.8,3.4,11.8,5c0.9,0.4,0.9,0.7,0.4,1.5
			c-3.2,5.5-7.4,10-12.7,13.5c-1.2,0.8-2.5,1.5-3.7,2.3c-1,0.6-1.7,0.7-2-0.7C462.1,207.5,461.7,206.5,461.3,205.6z"/>
		<path class="st5" d="M466.9,168.1c1.4,3.8,2,7.7,2,11.7c-4.9-2.3-9.8-4.5-14.7-6.8C458.3,171.5,462.6,169.8,466.9,168.1z"/>
		<path class="st7" d="M444.5,204.4c2.9-1.1,2.9-1.1,4.3,2.4c1,2.4,0.9,2.4-2.7,3.9c-1.5,0.6-2.5,1-3.2-1.1
			C441.6,205.6,441.5,205.6,444.5,204.4z"/>
		<path class="st8" d="M475.2,171.6c-1.1-2.8-1.1-2.8,2.3-4.2c2.4-1,2.4-1,3.8,2.6c0.9,2.3,0.9,2.3-2.7,3.7
			C476.4,174.6,476.4,174.6,475.2,171.6z"/>
	</g>
	<text transform="matrix(0.6499 0 0 1 14.354 154.1719)" class="st2 st9 st10">MANDARINA</text>
</g>
</svg>
